<!-- Generator: Adobe Illustrator 18.0.0, SVG Export Plug-In  -->
<svg version="1.1"
	 xmlns="http://www.w3.org/2000/svg" xmlns:xlink="http://www.w3.org/1999/xlink" xmlns:a="http://ns.adobe.com/AdobeSVGViewerExtensions/3.0/"
	 x="0px" y="0px" width="16px" height="13px" viewBox="0 0 16 13" enable-background="new 0 0 16 13" xml:space="preserve">
<defs>
</defs>
<g>
	<g>
		<path fill="#fef9ac" d="M14,5H7.7l0.5-0.4c0.9-0.7,1-1.9,0.3-2.8c-0.7-0.9-1.9-1-2.8-0.3l-5,4C0.3,5.8,0,6.4,0,7s0.3,1.2,0.8,1.6
			l5,4C6.1,12.9,6.6,13,7,13c0.6,0,1.2-0.3,1.6-0.8c0.7-0.9,0.6-2.1-0.3-2.8L7.7,9H14c1.1,0,2-0.9,2-2S15.1,5,14,5z"/>
	</g>
	<g>
		<path fill="#E89200" d="M14,4H7.7l0.5-0.4c0.9-0.7,1-1.9,0.3-2.8c-0.7-0.9-1.9-1-2.8-0.3l-5,4C0.3,4.8,0,5.4,0,6s0.3,1.2,0.8,1.6
			l5,4C6.1,11.9,6.6,12,7,12c0.6,0,1.2-0.3,1.6-0.8c0.7-0.9,0.6-2.1-0.3-2.8L7.7,8H14c1.1,0,2-0.9,2-2S15.1,4,14,4z"/>
	</g>
</g>
</svg>
