<svg version="1.1"
	 xmlns="http://www.w3.org/2000/svg" xmlns:xlink="http://www.w3.org/1999/xlink" xmlns:a="http://ns.adobe.com/AdobeSVGViewerExtensions/3.0/"
	 x="0px" y="0px" width="18px" height="18px" viewBox="0 0 18 18" enable-background="new 0 0 18 18" xml:space="preserve">
<defs>
</defs>
<g>
	<g>
		<path fill="#fef9ac" d="M0.6,3C0.4,2.8,0.4,2.6,0.5,2.3C1.1,1.5,2,1,3,1h12c1,0,1.9,0.5,2.5,1.3c0.1,0.2,0.1,0.5-0.1,0.7L9.3,9.5
			c-0.2,0.1-0.4,0.1-0.6,0L0.6,3z M12.7,10l4.4,4c0.3,0.3,0.8,0.1,0.8-0.4V6.1c0-0.4-0.5-0.7-0.8-0.4l-4.4,3.5
			C12.5,9.5,12.5,9.8,12.7,10z M10.4,11.2L9.3,12c-0.2,0.1-0.4,0.1-0.6,0l-1.1-0.9C7.4,11,7.1,11,7,11.2L1,16.5
			c-0.2,0.2-0.2,0.6,0,0.8C1.6,17.7,2.3,18,3,18h12c0.7,0,1.4-0.3,2-0.7c0.2-0.2,0.2-0.6,0-0.8L11,11.2C10.9,11,10.6,11,10.4,11.2z
			 M5.2,9.3L0.8,5.7C0.5,5.5,0,5.7,0,6.1v7.5c0,0.4,0.5,0.7,0.8,0.4l4.4-4C5.5,9.8,5.5,9.5,5.2,9.3z"/>
	</g>
	<g>
		<path fill="#E89200" d="M0.6,2C0.4,1.8,0.4,1.6,0.5,1.3C1.1,0.5,2,0,3,0h12c1,0,1.9,0.5,2.5,1.3c0.1,0.2,0.1,0.5-0.1,0.7L9.3,8.5
			c-0.2,0.1-0.4,0.1-0.6,0L0.6,2z M12.7,9l4.4,4c0.3,0.3,0.8,0.1,0.8-0.4V5.1c0-0.4-0.5-0.7-0.8-0.4l-4.4,3.5
			C12.5,8.5,12.5,8.8,12.7,9z M10.4,10.2L9.3,11c-0.2,0.1-0.4,0.1-0.6,0l-1.1-0.9C7.4,10,7.1,10,7,10.2L1,15.5
			c-0.2,0.2-0.2,0.6,0,0.8C1.6,16.7,2.3,17,3,17h12c0.7,0,1.4-0.3,2-0.7c0.2-0.2,0.2-0.6,0-0.8L11,10.2C10.9,10,10.6,10,10.4,10.2z
			 M5.2,8.3L0.8,4.7C0.5,4.5,0,4.7,0,5.1v7.5c0,0.4,0.5,0.7,0.8,0.4l4.4-4C5.5,8.8,5.5,8.5,5.2,8.3z"/>
	</g>
</g>
</svg>
