<!-- Generator: Adobe Illustrator 18.0.0, SVG Export Plug-In  -->
<svg version="1.1"
	 xmlns="http://www.w3.org/2000/svg" xmlns:xlink="http://www.w3.org/1999/xlink" xmlns:a="http://ns.adobe.com/AdobeSVGViewerExtensions/3.0/"
	 x="0px" y="0px" width="17.2px" height="17.7px" viewBox="0 0 17.2 17.7" enable-background="new 0 0 17.2 17.7"
	 xml:space="preserve">
<defs>
</defs>
<g>
	<g>
		<path fill="#fef9ac" d="M14.6,5.5V3.7c0-0.5-0.4-1-1-1h0c-0.5,0-1,0.4-1,1v0.5L9.2,1.2c-0.4-0.3-0.9-0.3-1.3,0L0.3,7.9
			c-0.4,0.4-0.5,1-0.1,1.4l1.3,1.5l1-0.9v6.8c0,0.5,0.4,1,1,1h3c0.5,0,1-0.4,1-1v-3c0-0.5,0.4-1,1-1h0c0.5,0,1,0.4,1,1v3
			c0,0.5,0.4,1,1,1h3c0.5,0,1-0.4,1-1V9.9l1,0.9l1.3-1.5c0.4-0.4,0.3-1-0.1-1.4l-1.9-1.7C14.7,6,14.6,5.8,14.6,5.5z M8.6,4.7
			L8.6,4.7L8.6,4.7L8.6,4.7z"/>
	</g>
	<g>
		<path fill="#E89200" d="M14.6,4.5V2.7c0-0.5-0.4-1-1-1h0c-0.5,0-1,0.4-1,1v0.5L9.2,0.2c-0.4-0.3-0.9-0.3-1.3,0L0.3,6.9
			c-0.4,0.4-0.5,1-0.1,1.4l1.3,1.5l1-0.9v6.8c0,0.5,0.4,1,1,1h3c0.5,0,1-0.4,1-1v-3c0-0.5,0.4-1,1-1h0c0.5,0,1,0.4,1,1v3
			c0,0.5,0.4,1,1,1h3c0.5,0,1-0.4,1-1V8.9l1,0.9l1.3-1.5c0.4-0.4,0.3-1-0.1-1.4l-1.9-1.7C14.7,5,14.6,4.8,14.6,4.5z M8.6,3.7
			L8.6,3.7L8.6,3.7L8.6,3.7z"/>
	</g>
</g>
</svg>
